<mxfile host="app.diagrams.net" modified="2024-10-10T07:18:15.090Z" agent="Mozilla/5.0 (Windows NT 10.0; Win64; x64) AppleWebKit/537.36 (KHTML, like Gecko) Chrome/129.0.0.0 Safari/537.36" version="24.6.2" etag="KH7die3PXs5lHtE-6HK9" type="github">
  <diagram name="Page-1" id="dVPj8EBxdoyClNyjC8nH">
    <mxGraphModel>
      <root>
        <mxCell id="0" />
        <mxCell id="1" parent="0" />
      </root>
    </mxGraphModel>
  </diagram>
</mxfile>
